<svg width="70" height="70" viewBox="0 0 70 70" fill="none" xmlns="http://www.w3.org/2000/svg">
<g filter="url(#filter0_d)">
<path d="M15.3082 0C13.7484 0 12.1887 1.5597 12.1887 3.11945V36.2641C12.1887 37.8239 14.1384 37.8239 14.1384 36.2641V10.5282H55.4717V36.2641C55.4717 37.8239 57.4214 37.8239 57.4214 36.2641V3.11945C57.4214 1.5597 55.8616 0 54.3019 0H15.3082ZM15.3082 1.94969H54.6918C55.4717 1.94969 55.8616 2.33958 55.8616 3.11945V8.1887H14.1384V3.11945C14.1384 2.33958 14.9182 1.94969 15.3082 1.94969ZM17.2579 3.89937C16.8679 3.89937 16.088 4.28926 16.088 5.06913C16.088 5.84901 16.478 6.23902 17.2579 6.23902C17.6478 6.23902 18.4277 5.84901 18.4277 5.06913C18.4277 4.28926 18.0377 3.89937 17.2579 3.89937ZM21.5472 3.89937C21.1572 3.89937 20.3774 4.28926 20.3774 5.06913C20.3774 5.84901 20.7673 6.23902 21.5472 6.23902C21.9371 6.23902 22.717 5.84901 22.717 5.06913C22.717 4.28926 21.9371 3.89937 21.5472 3.89937ZM25.8365 3.89937C25.4465 3.89937 24.6667 4.28926 24.6667 5.06913C24.6667 5.84901 25.0566 6.23902 25.8365 6.23902C26.2264 6.23902 27.0063 5.84901 27.0063 5.06913C26.6164 4.28926 26.2264 3.89937 25.8365 3.89937ZM39.8742 3.89937C38.3145 3.89937 38.7044 5.84906 39.8742 5.84906H52.3522C53.522 5.84906 53.522 3.89937 52.3522 3.89937H39.8742ZM7.1195 6.23902C5.55975 6.23902 4 7.79872 4 9.35847V46.4025C4 47.9622 5.55975 49.5219 7.1195 49.5219H62.8805C64.4403 49.5219 66 47.9622 66 46.4025V9.35847C66 7.79872 64.4403 6.23902 62.8805 6.23902H60.9308C59.3711 6.23902 59.3711 8.1887 60.9308 8.1887H62.8805C63.6604 8.1887 64.0503 8.57859 64.0503 9.35847V39.3837H5.94969V9.35847C5.94969 8.57859 6.33962 8.1887 7.1195 8.1887H9.06918C10.6289 8.1887 10.6289 6.23902 9.06918 6.23902H7.1195ZM37.9245 14.4276C37.5346 14.4276 37.1447 14.8176 36.7547 15.2075L30.5157 33.9245C30.1258 35.0943 32.0755 35.8742 32.4654 34.7044L38.7044 15.9874C39.0943 14.8176 38.7044 14.4276 37.9245 14.4276ZM42.6038 20.2767L47.673 24.566L42.6038 28.8553C41.434 29.6352 42.9937 31.1949 43.7736 30.415L50.0126 25.3459C50.4025 24.956 50.4025 24.1761 50.0126 23.7862L43.7736 18.7169C43.7736 18.7169 43.3836 18.327 42.9937 18.327C42.2138 18.327 41.8239 19.4968 42.6038 20.2767ZM26.6164 18.327C26.2264 18.327 26.2264 18.327 25.8365 18.7169L19.5975 23.7862C19.2075 24.1761 19.2075 24.956 19.5975 25.3459L25.8365 30.415C27.0063 31.5849 28.1761 29.6352 27.0063 28.8553L21.9371 24.566L27.0063 20.2767C28.1761 19.4968 27.7862 18.327 26.6164 18.327ZM5.94969 41.3334H63.6604V46.4025C63.6604 47.1824 63.2704 47.5723 62.4906 47.5723H7.1195C6.33962 47.5723 5.94969 47.1824 5.94969 46.4025V41.3334ZM37.1447 43.283H32.8553C31.6855 43.283 31.6855 45.2327 32.8553 45.2327H37.1447C38.3145 45.2327 38.7044 43.283 37.1447 43.283ZM29.3459 51.4716C28.956 51.4716 28.566 51.8616 28.566 52.2515C28.1761 53.4214 27.0063 54.5911 25.8365 55.761H23.4969C21.9371 55.761 20.3774 57.3208 20.3774 58.8805V60.8302C20.3774 61.2201 20.7673 62 21.5472 62H48.4528C48.8428 62 49.6226 61.6101 49.6226 60.8302V58.8805C49.6226 57.3208 48.0629 55.761 46.5031 55.761H44.9434C43.3836 54.5911 42.6038 53.4214 42.2138 52.2515C42.2138 51.8616 41.8239 51.4716 41.044 51.4716C40.2642 51.4716 39.8742 52.2516 40.2642 53.0315C40.6541 53.8113 41.434 54.9811 42.2138 55.761H28.1761C28.956 54.9811 29.7358 53.8113 30.1258 53.0315C30.5157 52.2516 29.7358 51.4716 29.3459 51.4716ZM23.4969 57.7106H46.1132C46.8931 57.7106 47.283 58.1007 47.283 58.8805V60.0503H22.717V58.8805C22.717 58.1007 23.1069 57.7106 23.4969 57.7106Z" fill="white"/>
</g>
<defs>
<filter id="filter0_d" x="0" y="0" width="70" height="70" filterUnits="userSpaceOnUse" color-interpolation-filters="sRGB">
<feFlood flood-opacity="0" result="BackgroundImageFix"/>
<feColorMatrix in="SourceAlpha" type="matrix" values="0 0 0 0 0 0 0 0 0 0 0 0 0 0 0 0 0 0 127 0"/>
<feOffset dy="4"/>
<feGaussianBlur stdDeviation="2"/>
<feColorMatrix type="matrix" values="0 0 0 0 0 0 0 0 0 0 0 0 0 0 0 0 0 0 0.25 0"/>
<feBlend mode="normal" in2="BackgroundImageFix" result="effect1_dropShadow"/>
<feBlend mode="normal" in="SourceGraphic" in2="effect1_dropShadow" result="shape"/>
</filter>
</defs>
</svg>
