<svg width="60" height="60" viewBox="0 0 60 60" fill="none" xmlns="http://www.w3.org/2000/svg">
<g filter="url(#filter0_d)">
<path d="M25 41C36.0457 41 45 32.0457 45 21C45 9.9543 36.0457 1 25 1C13.9543 1 5 9.9543 5 21C5 32.0457 13.9543 41 25 41Z" stroke="white" stroke-width="2" stroke-linejoin="round"/>
<path d="M35.8 37.8L47.7001 49.7001C49.4001 51.4001 52.0001 51.4001 53.7001 49.7001C55.4001 48.0001 55.4001 45.4001 53.7001 43.7001L41.8 31.8" stroke="white" stroke-width="2" stroke-linecap="round" stroke-linejoin="round"/>
<path d="M25 9V15" stroke="white" stroke-width="2" stroke-linecap="round" stroke-linejoin="round"/>
<path d="M13 21H19" stroke="white" stroke-width="2" stroke-linecap="round" stroke-linejoin="round"/>
<path d="M25 27V33" stroke="white" stroke-width="2" stroke-linecap="round" stroke-linejoin="round"/>
<path d="M31 21H37" stroke="white" stroke-width="2" stroke-linecap="round" stroke-linejoin="round"/>
<path d="M25 30C29.9706 30 34 25.9706 34 21C34 16.0294 29.9706 12 25 12C20.0294 12 16 16.0294 16 21C16 25.9706 20.0294 30 25 30Z" stroke="white" stroke-width="2" stroke-linejoin="round"/>
</g>
<defs>
<filter id="filter0_d" x="0" y="0" width="59.9751" height="59.9751" filterUnits="userSpaceOnUse" color-interpolation-filters="sRGB">
<feFlood flood-opacity="0" result="BackgroundImageFix"/>
<feColorMatrix in="SourceAlpha" type="matrix" values="0 0 0 0 0 0 0 0 0 0 0 0 0 0 0 0 0 0 127 0"/>
<feOffset dy="4"/>
<feGaussianBlur stdDeviation="2"/>
<feColorMatrix type="matrix" values="0 0 0 0 0 0 0 0 0 0 0 0 0 0 0 0 0 0 0.25 0"/>
<feBlend mode="normal" in2="BackgroundImageFix" result="effect1_dropShadow"/>
<feBlend mode="normal" in="SourceGraphic" in2="effect1_dropShadow" result="shape"/>
</filter>
</defs>
</svg>
