<svg width="64" height="52" viewBox="0 0 64 52" fill="none" xmlns="http://www.w3.org/2000/svg">
<g filter="url(#filter0_d)">
<path d="M20 31H59" stroke="white" stroke-width="2" stroke-linecap="round" stroke-linejoin="round"/>
<path d="M9 24V4C9 2.3 10.3 1 12 1H56C57.7 1 59 2.3 59 4V34C59 35.7 57.7 37 56 37H14" stroke="white" stroke-width="2" stroke-linecap="round" stroke-linejoin="round"/>
<path d="M40 43L39 37" stroke="white" stroke-width="2" stroke-linecap="round" stroke-linejoin="round"/>
<path d="M25 43H43" stroke="white" stroke-width="2" stroke-linecap="round" stroke-linejoin="round"/>
<path d="M29 37L28 43" stroke="white" stroke-width="2" stroke-linecap="round" stroke-linejoin="round"/>
<path d="M39 19H53V7L39 7V19Z" stroke="white" stroke-width="2" stroke-linecap="round" stroke-linejoin="round"/>
<path d="M53 23H39" stroke="white" stroke-width="2" stroke-linecap="round" stroke-linejoin="round"/>
<path d="M53 27H39" stroke="white" stroke-width="2" stroke-linecap="round" stroke-linejoin="round"/>
<path d="M27 18.1L8.1 37C6.4 37 5 35.6 5 33.9L23.9 15C25.6 15 27 16.4 27 18.1Z" stroke="white" stroke-width="2" stroke-linejoin="round"/>
<path d="M16.8999 22C18.5999 22 19.9999 23.4 19.9999 25.1" stroke="white" stroke-width="2" stroke-linejoin="round"/>
<path d="M31.5 27C33.433 27 35 25.433 35 23.5C35 21.567 33.433 20 31.5 20C29.567 20 28 21.567 28 23.5C28 25.433 29.567 27 31.5 27Z" stroke="white" stroke-width="2" stroke-linejoin="round"/>
<path d="M31.5 13C33.433 13 35 11.433 35 9.5C35 7.567 33.433 6 31.5 6C29.567 6 28 7.567 28 9.5C28 11.433 29.567 13 31.5 13Z" stroke="white" stroke-width="2" stroke-linejoin="round"/>
<path d="M18 14C20.2091 14 22 12.2091 22 10C22 7.79086 20.2091 6 18 6C15.7909 6 14 7.79086 14 10C14 12.2091 15.7909 14 18 14Z" stroke="white" stroke-width="2" stroke-linejoin="round"/>
</g>
<defs>
<filter id="filter0_d" x="0" y="0" width="64" height="52.0002" filterUnits="userSpaceOnUse" color-interpolation-filters="sRGB">
<feFlood flood-opacity="0" result="BackgroundImageFix"/>
<feColorMatrix in="SourceAlpha" type="matrix" values="0 0 0 0 0 0 0 0 0 0 0 0 0 0 0 0 0 0 127 0"/>
<feOffset dy="4"/>
<feGaussianBlur stdDeviation="2"/>
<feColorMatrix type="matrix" values="0 0 0 0 0 0 0 0 0 0 0 0 0 0 0 0 0 0 0.25 0"/>
<feBlend mode="normal" in2="BackgroundImageFix" result="effect1_dropShadow"/>
<feBlend mode="normal" in="SourceGraphic" in2="effect1_dropShadow" result="shape"/>
</filter>
</defs>
</svg>
