<svg width="86" height="82" viewBox="0 0 86 82" fill="none" xmlns="http://www.w3.org/2000/svg">
<g clip-path="url(#clip0)" filter="url(#filter0_d)">
<path d="M28.8821 53.5352V59.9936H33.2501H52.7501H57.1181V53.5352H28.8821Z" fill="white"/>
<path d="M39.7241 43.7307C39.7241 43.1082 39.2561 42.6414 38.6321 42.6414C38.1641 42.6414 37.7741 42.9526 37.6181 43.4195L35.6681 49.1776H29.9741C29.3501 49.1776 28.8821 49.6445 28.8821 50.267C28.8821 50.8895 29.3501 51.3564 29.9741 51.3564H37.2281L39.6461 44.1198C39.7241 43.9642 39.7241 43.8864 39.7241 43.7307Z" fill="white"/>
<path d="M32.158 42.7193H22.798L20.068 35.2492C19.678 33.9264 18.43 32.9927 16.948 32.9927C16.402 32.9927 15.934 33.1483 15.466 33.3817C8.134 37.0389 4 45.3649 4 56.7256C4 58.5153 5.482 59.9937 7.276 59.9937H17.026V70.8097C17.026 72.5994 18.508 74.0778 20.302 74.0778C22.096 74.0778 23.5 72.5994 23.5 70.8097V56.7256C23.5 54.9359 22.018 53.4574 20.224 53.4574H10.63C11.02 48.7887 12.424 43.7308 16.09 40.6183L19.444 45.754C19.834 46.4543 20.536 46.9212 21.394 46.9212H32.236C33.406 46.9212 34.42 45.9874 34.42 44.7424C34.42 43.4974 33.328 42.7193 32.158 42.7193Z" fill="white"/>
<path d="M25.6839 35.6383C28.3547 35.6383 30.5199 33.4783 30.5199 30.8139C30.5199 28.1495 28.3547 25.9895 25.6839 25.9895C23.0131 25.9895 20.8479 28.1495 20.8479 30.8139C20.8479 33.4783 23.0131 35.6383 25.6839 35.6383Z" fill="white"/>
<path d="M56.0261 49.1776H50.3321L48.3821 43.4195C48.2261 42.9526 47.8361 42.6414 47.3681 42.6414C46.7441 42.6414 46.2761 43.1082 46.2761 43.7307C46.2761 43.8864 46.2761 43.9642 46.3541 44.042L48.7721 51.2786H56.0261C56.6501 51.2786 57.1181 50.8117 57.1181 50.1892C57.1181 49.5667 56.5721 49.1776 56.0261 49.1776Z" fill="white"/>
<path d="M60.316 35.6383C62.9868 35.6383 65.152 33.4783 65.152 30.8139C65.152 28.1495 62.9868 25.9895 60.316 25.9895C57.6451 25.9895 55.48 28.1495 55.48 30.8139C55.48 33.4783 57.6451 35.6383 60.316 35.6383Z" fill="white"/>
<path d="M70.4561 33.3039C69.9881 33.0705 69.5201 32.9927 68.9741 32.9927C67.4921 32.9927 66.3221 33.9264 65.8541 35.2492L63.1241 42.7193H53.7641C52.5941 42.7193 51.5801 43.653 51.5801 44.898C51.5801 46.143 52.5161 47.0768 53.7641 47.0768H64.6061C65.4641 47.0768 66.1661 46.6099 66.5561 45.9096L69.9101 40.774C73.5761 43.8865 74.9801 48.9443 75.3701 53.6131H65.7761C63.9821 53.6131 62.5001 55.0915 62.5001 56.8812V70.8097C62.5001 72.5994 63.9821 74.0778 65.7761 74.0778C67.5701 74.0778 69.0521 72.5994 69.0521 70.8097V59.9937H78.8021C80.5961 59.9937 82.0781 58.5153 82.0781 56.7256C82.0001 45.3649 77.8661 37.0389 70.4561 33.3039Z" fill="white"/>
<path d="M43.0001 22.7213C36.7601 22.7213 31.6121 17.6635 31.6121 11.3607C31.6121 5.05783 36.7601 0 43.0001 0C49.2401 0 54.3881 5.05783 54.3881 11.3607C54.3881 17.6635 49.2401 22.7213 43.0001 22.7213ZM43.0001 2.17876C37.9301 2.17876 33.7961 6.30284 33.7961 11.3607C33.7961 16.4185 37.9301 20.5426 43.0001 20.5426C48.0701 20.5426 52.2041 16.4185 52.2041 11.3607C52.2041 6.30284 48.0701 2.17876 43.0001 2.17876Z" fill="white"/>
<path d="M48.3821 7.00325C48.3821 6.38074 47.9141 5.91387 47.2901 5.91387C46.9781 5.91387 46.7441 6.06949 46.5101 6.22512L44.0141 8.71513V4.82449C44.0141 4.20198 43.5461 3.73511 42.9221 3.73511C42.2981 3.73511 41.8301 4.20198 41.8301 4.82449V11.283C41.8301 11.9055 42.2981 12.3723 42.9221 12.3723C43.2341 12.3723 43.4681 12.2167 43.7021 12.0611L48.0701 7.70356C48.3041 7.62575 48.3821 7.3145 48.3821 7.00325Z" fill="white"/>
</g>
<defs>
<filter id="filter0_d" x="0" y="0" width="86" height="82" filterUnits="userSpaceOnUse" color-interpolation-filters="sRGB">
<feFlood flood-opacity="0" result="BackgroundImageFix"/>
<feColorMatrix in="SourceAlpha" type="matrix" values="0 0 0 0 0 0 0 0 0 0 0 0 0 0 0 0 0 0 127 0"/>
<feOffset dy="4"/>
<feGaussianBlur stdDeviation="2"/>
<feColorMatrix type="matrix" values="0 0 0 0 0 0 0 0 0 0 0 0 0 0 0 0 0 0 0.25 0"/>
<feBlend mode="normal" in2="BackgroundImageFix" result="effect1_dropShadow"/>
<feBlend mode="normal" in="SourceGraphic" in2="effect1_dropShadow" result="shape"/>
</filter>
<clipPath id="clip0">
<rect width="78" height="74" fill="white" transform="translate(4)"/>
</clipPath>
</defs>
</svg>
