<svg width="58" height="60" viewBox="0 0 58 60" fill="none" xmlns="http://www.w3.org/2000/svg">
<g filter="url(#filter0_d)">
<path d="M36 7C36.5523 7 37 6.55228 37 6C37 5.44772 36.5523 5 36 5C35.4477 5 35 5.44772 35 6C35 6.55228 35.4477 7 36 7Z" stroke="white" stroke-width="2" stroke-linecap="round" stroke-linejoin="round"/>
<path d="M36 1C38.8 1 41 3.2 41 6V7H43C44.1 7 45 7.9 45 9V11C45 12.1 44.1 13 43 13H29C27.9 13 27 12.1 27 11V9C27 7.9 27.9 7 29 7H31V6C31 3.2 33.2 1 36 1Z" stroke="white" stroke-width="2" stroke-linejoin="round"/>
<path d="M27 9H22C20.3 9 19 10.3 19 12V13.5" stroke="white" stroke-width="2" stroke-linejoin="round"/>
<path d="M19 26.5V48C19 49.7 20.3 51 22 51H50C51.7 51 53 49.7 53 48V12C53 10.3 51.7 9 50 9H45" stroke="white" stroke-width="2" stroke-linejoin="round"/>
<path d="M47 21H33" stroke="white" stroke-width="2" stroke-linecap="round" stroke-linejoin="round"/>
<path d="M47 27L38 27" stroke="white" stroke-width="2" stroke-linecap="round" stroke-linejoin="round"/>
<path d="M26 45L47 45" stroke="white" stroke-width="2" stroke-linecap="round" stroke-linejoin="round"/>
<path d="M46.9999 33H42" stroke="white" stroke-width="2" stroke-linecap="round" stroke-linejoin="round"/>
<path d="M40 39L47 39" stroke="white" stroke-width="2" stroke-linecap="round" stroke-linejoin="round"/>
<path d="M15.5814 10.129L38.2363 32.784C39.3834 33.931 39.24 35.58 38.0929 36.7271L35.7271 39.0929C34.58 40.24 32.8593 40.3117 31.784 39.2363L9.12901 16.5814L6.04623 7.97824C5.83115 7.4047 6.40469 6.83115 6.97823 7.04623L15.5814 10.129Z" stroke="white" stroke-width="2" stroke-linejoin="round"/>
<path d="M33.2177 27.7654L26.7654 34.2177" stroke="white" stroke-width="1.43386" stroke-linejoin="round"/>
<path d="M35.3684 29.9163L28.916 36.3686" stroke="white" stroke-width="1.43386" stroke-linejoin="round"/>
<path d="M15.5813 10.129L9.12891 16.5814" stroke="white" stroke-width="1.43386" stroke-linejoin="round"/>
</g>
<defs>
<filter id="filter0_d" x="0.997803" y="0" width="57.0022" height="60" filterUnits="userSpaceOnUse" color-interpolation-filters="sRGB">
<feFlood flood-opacity="0" result="BackgroundImageFix"/>
<feColorMatrix in="SourceAlpha" type="matrix" values="0 0 0 0 0 0 0 0 0 0 0 0 0 0 0 0 0 0 127 0"/>
<feOffset dy="4"/>
<feGaussianBlur stdDeviation="2"/>
<feColorMatrix type="matrix" values="0 0 0 0 0 0 0 0 0 0 0 0 0 0 0 0 0 0 0.25 0"/>
<feBlend mode="normal" in2="BackgroundImageFix" result="effect1_dropShadow"/>
<feBlend mode="normal" in="SourceGraphic" in2="effect1_dropShadow" result="shape"/>
</filter>
</defs>
</svg>
