<svg width="335" height="63" viewBox="0 0 335 63" fill="none" xmlns="http://www.w3.org/2000/svg">
<path d="M31.8 0.5L54.3 62.2H45.3L36.3 37.5L9.39999 62.2H0.399994L22.9 0.5H31.8ZM27.3 12.9L15.6 45.1L33.1 29L27.3 12.9Z" fill="#159782"/>
<path d="M105 31.4C104.9 48.4 91.1 62.2 74.1 62.3H57.8V31.4H66.8V54.6H72.6C74.2 54.6 75.7 54.4 77.2 54.1L60.5 8.09998L57.7 0.5H74C91.2 0.6 104.9 14.3 105 31.4ZM72.7 8.09998H69.7L85.2 50.9C96 44 99.2 29.7 92.3 18.9C88 12.2 80.7 8.09998 72.7 8.09998Z" fill="#159782"/>
<path d="M153.6 0.5H162.6L140.1 62.2H131.1L108.6 0.5H117.6L126.6 25.1L153.6 0.5ZM147.3 17.6L129.8 33.7L135.7 49.8L147.3 17.6Z" fill="#159782"/>
<path d="M197.7 0.5L220.2 62.2H211.2L202.2 37.5L175.3 62.2H166.3L188.8 0.5H197.7ZM193.2 12.9L181.5 45.1L199.1 29L193.2 12.9Z" fill="#159782"/>
<path d="M223.8 0.5H232.8V62.2H223.8V0.5Z" fill="#159782"/>
<path d="M283.5 0.5V8.09998L264.5 16.5V62.2H255.5V12.9L264.5 8.90002L266.3 8.09998H236.5V0.5H283.5Z" fill="#159782"/>
<path d="M325.1 0.5H334.1V62.2H325.1V41.3L296.1 30.2V62.2H287.1V0.5H296.1V20.7L325.1 31.4V0.5Z" fill="#159782"/>
</svg>
