<svg width="361" height="51" viewBox="0 0 361 51" fill="none" xmlns="http://www.w3.org/2000/svg">
<path d="M25.4831 0L43.6853 50.3407H36.4044L29.1235 30.1881L7.28088 50.3407H0L18.2022 0H25.4831ZM21.8427 10.1171L12.3775 36.3889L26.6157 23.253L21.8427 10.1171Z" fill="#159782"/>
<path d="M100.722 25.2111C100.722 39.0813 89.4773 50.4223 75.7245 50.4223H69.8998H62.6189V25.2111H69.8998V44.1399H74.5919C75.8863 44.1399 77.0998 43.9767 78.3132 43.7319L64.8032 6.2008L62.6189 0H69.8998H75.7245C89.5582 0 100.722 11.3409 100.722 25.2111ZM74.6728 6.2008H72.1649L84.7851 41.1211C89.9627 37.7759 93.4413 31.8199 93.4413 25.2111C93.4413 14.7677 84.9469 6.2008 74.6728 6.2008Z" fill="#159782"/>
<path d="M155.422 0H162.703L144.501 50.3407H137.22L119.099 0H126.38L133.661 20.1526L155.422 0ZM150.407 13.9518L136.168 27.0877L140.941 40.2236L150.407 13.9518Z" fill="#159782"/>
<path d="M205.973 0L224.175 50.3407H216.894L209.613 30.1881L187.771 50.3407H180.49L198.611 0H205.973ZM202.251 10.1171L192.786 36.3889L207.025 23.253L202.251 10.1171Z" fill="#159782"/>
<path d="M241.881 0H249.162V50.3407H241.881V0Z" fill="#159782"/>
<path d="M305.768 0V6.2008L290.398 13.0543V50.3407H283.117V16.3179V10.1171L290.398 6.85351L291.773 6.2008H267.665V0H305.768Z" fill="#159782"/>
<path d="M353.578 0H360.859V21.866V28.0668V50.3407H353.578V33.2885L330.198 24.2321V50.3407H322.917V28.1484V21.9476V0H330.198V16.4811L353.578 25.2111V0Z" fill="#159782"/>
</svg>
