<svg width="810" height="259" viewBox="0 0 810 259" fill="none" xmlns="http://www.w3.org/2000/svg">
<path d="M292.269 0.799998L302.205 16.496L255.477 43.784L302.205 70.568L291.909 86.768L235.821 51.92V35.792L292.269 0.799998ZM339.3 75.392C339.3 72.464 340.02 69.8 341.46 67.4C342.9 64.952 344.844 63.008 347.292 61.568C349.74 60.08 352.428 59.336 355.356 59.336C358.332 59.336 361.02 60.08 363.42 61.568C365.868 63.008 367.812 64.952 369.252 67.4C370.692 69.8 371.412 72.464 371.412 75.392C371.412 78.272 370.692 80.936 369.252 83.384C367.812 85.832 365.868 87.776 363.42 89.216C361.02 90.704 358.332 91.448 355.356 91.448C352.428 91.448 349.74 90.704 347.292 89.216C344.844 87.776 342.9 85.832 341.46 83.384C340.02 80.936 339.3 78.272 339.3 75.392ZM504.932 0.799998L561.236 35.648V51.92L505.148 86.768L494.852 71.288L541.652 43.784L494.852 17.144L504.932 0.799998ZM6.85994 259C2.82794 259 0.811938 256.984 0.811938 252.952V167.416C0.811938 163.384 2.82794 161.368 6.85994 161.368H40.5559C49.3399 161.368 56.0599 163.72 60.7159 168.424C65.4199 173.08 67.7719 179.8 67.7719 188.584V192.904C67.7719 201.688 65.4199 208.432 60.7159 213.136C56.0599 217.792 49.3399 220.12 40.5559 220.12H12.9079V252.952C12.9079 256.984 10.8919 259 6.85994 259ZM12.9079 208.024H40.5559C46.0279 208.024 49.9159 206.872 52.2199 204.568C54.5239 202.264 55.6759 198.376 55.6759 192.904V188.584C55.6759 183.16 54.5239 179.296 52.2199 176.992C49.9159 174.64 46.0279 173.464 40.5559 173.464H12.9079V208.024ZM111.08 259C101.528 259 94.4239 256.696 89.7679 252.088C85.1599 247.48 82.8559 240.424 82.8559 230.92V214.216C82.8559 204.568 85.1599 197.464 89.7679 192.904C94.4239 188.296 101.528 185.992 111.08 185.992H122.888C132.488 185.992 139.592 188.296 144.2 192.904C148.808 197.512 151.112 204.616 151.112 214.216V230.776C151.112 240.328 148.808 247.432 144.2 252.088C139.592 256.696 132.488 259 122.888 259H111.08ZM94.9519 230.92C94.9519 237.112 96.0799 241.336 98.3359 243.592C100.592 245.8 104.84 246.904 111.08 246.904H122.888C129.176 246.904 133.424 245.776 135.632 243.52C137.888 241.264 139.016 237.016 139.016 230.776V214.216C139.016 207.928 137.888 203.68 135.632 201.472C133.424 199.216 129.176 198.088 122.888 198.088H111.08C106.904 198.088 103.64 198.568 101.288 199.528C98.9839 200.44 97.3519 202.072 96.3919 204.424C95.4319 206.728 94.9519 209.992 94.9519 214.216V230.92ZM183.626 259C179.594 259 177.578 256.984 177.578 252.952V192.04C177.578 188.008 179.594 185.992 183.626 185.992C187.658 185.992 189.674 188.008 189.674 192.04V252.952C189.674 256.984 187.658 259 183.626 259ZM181.61 174.184C177.05 174.184 174.77 171.88 174.77 167.272V163.024C174.77 158.512 177.05 156.256 181.61 156.256H185.786C190.154 156.256 192.338 158.512 192.338 163.024V167.272C192.338 171.88 190.154 174.184 185.786 174.184H181.61ZM225.672 259C221.64 259 219.624 256.984 219.624 252.952V192.04C219.624 188.008 221.64 185.992 225.672 185.992C229.704 185.992 231.72 188.008 231.72 192.04V194.416C236.808 188.8 244.296 185.992 254.184 185.992H258.216C267.816 185.992 274.92 188.296 279.528 192.904C284.136 197.512 286.44 204.616 286.44 214.216V252.952C286.44 256.984 284.424 259 280.392 259C276.36 259 274.344 256.984 274.344 252.952V214.216C274.344 207.928 273.192 203.68 270.888 201.472C268.632 199.216 264.408 198.088 258.216 198.088H254.184C248.424 198.088 243.408 198.76 239.136 200.104C234.864 201.4 232.392 203.464 231.72 206.296V252.952C231.72 256.984 229.704 259 225.672 259ZM345.784 259C336.28 259 329.272 256.744 324.76 252.232C320.248 247.72 317.992 240.76 317.992 231.352V198.088H310.936C306.904 198.088 304.888 196.072 304.888 192.04C304.888 188.008 306.904 185.992 310.936 185.992H317.992V175.48C317.992 171.448 320.008 169.432 324.04 169.432C328.072 169.432 330.088 171.448 330.088 175.48V185.992H346.648C350.68 185.992 352.696 188.008 352.696 192.04C352.696 196.072 350.68 198.088 346.648 198.088H330.088V231.352C330.088 237.448 331.192 241.576 333.4 243.736C335.608 245.848 339.736 246.904 345.784 246.904C347.656 246.904 349.12 247.384 350.176 248.344C351.28 249.304 351.832 250.84 351.832 252.952C351.832 256.984 349.816 259 345.784 259Z" fill="#00C853"/>
<path d="M426.626 259C422.594 259 420.578 256.984 420.578 252.952V167.416C420.578 163.384 422.594 161.368 426.626 161.368H464.21C471.842 161.368 477.698 163.384 481.778 167.416C485.906 171.448 487.97 177.208 487.97 184.696V188.584C487.97 195.064 485.93 200.08 481.85 203.632C489.482 207.904 493.298 215.704 493.298 227.032V231.928C493.298 240.76 490.946 247.48 486.242 252.088C481.586 256.696 474.866 259 466.082 259H426.626ZM432.674 246.904H466.082C471.506 246.904 475.37 245.752 477.674 243.448C480.026 241.096 481.202 237.256 481.202 231.928V227.032C481.202 221.704 480.074 217.912 477.818 215.656C475.562 213.352 471.65 212.2 466.082 212.2H432.674V246.904ZM432.674 200.104H466.802C470.306 200.104 472.682 199.024 473.93 196.864C475.226 194.704 475.874 191.944 475.874 188.584V184.696C475.874 180.52 475.01 177.616 473.282 175.984C471.554 174.304 468.53 173.464 464.21 173.464H432.674V200.104ZM539.212 259C531.868 259 526.396 257.2 522.796 253.6C519.244 249.952 517.468 244.456 517.468 237.112V163.672C517.468 159.64 519.484 157.624 523.516 157.624C527.548 157.624 529.564 159.64 529.564 163.672V237.112C529.564 241 530.188 243.616 531.436 244.96C532.732 246.256 535.324 246.904 539.212 246.904C543.34 246.904 545.404 248.92 545.404 252.952C545.548 256.984 543.484 259 539.212 259ZM586.479 259C578.415 259 572.415 257.032 568.479 253.096C564.543 249.16 562.575 243.16 562.575 235.096C562.575 227.032 564.519 221.032 568.407 217.096C572.343 213.16 578.367 211.192 586.479 211.192H616.935C616.647 206.152 615.327 202.72 612.975 200.896C610.623 199.024 606.591 198.088 600.879 198.088H592.527C587.727 198.088 584.151 198.424 581.799 199.096C579.447 199.72 577.791 200.872 576.831 202.552C575.967 204.568 575.079 205.96 574.167 206.728C573.255 207.496 571.887 207.88 570.063 207.88C568.047 207.88 566.463 207.328 565.311 206.224C564.159 205.072 563.823 203.56 564.303 201.688C565.743 196.264 568.743 192.304 573.303 189.808C577.911 187.264 584.319 185.992 592.527 185.992H600.879C610.479 185.992 617.583 188.296 622.191 192.904C626.799 197.512 629.103 204.616 629.103 214.216V252.952C629.103 256.984 627.087 259 623.055 259C619.023 259 617.007 256.984 617.007 252.952V249.712C611.871 255.904 604.383 259 594.543 259H586.479ZM586.479 246.904H594.543C598.095 246.904 601.431 246.592 604.551 245.968C607.671 245.296 610.335 244.096 612.543 242.368C614.799 240.64 616.287 238.168 617.007 234.952V223.288H586.479C581.727 223.288 578.559 224.08 576.975 225.664C575.439 227.248 574.671 230.392 574.671 235.096C574.671 239.848 575.439 243.016 576.975 244.6C578.559 246.136 581.727 246.904 586.479 246.904ZM663.719 259C659.687 259 657.671 256.984 657.671 252.952V192.04C657.671 188.008 659.687 185.992 663.719 185.992C667.751 185.992 669.767 188.008 669.767 192.04V194.416C674.855 188.8 682.343 185.992 692.231 185.992H696.263C705.863 185.992 712.967 188.296 717.575 192.904C722.183 197.512 724.487 204.616 724.487 214.216V252.952C724.487 256.984 722.471 259 718.439 259C714.407 259 712.391 256.984 712.391 252.952V214.216C712.391 207.928 711.239 203.68 708.935 201.472C706.679 199.216 702.455 198.088 696.263 198.088H692.231C686.471 198.088 681.455 198.76 677.183 200.104C672.911 201.4 670.439 203.464 669.767 206.296V252.952C669.767 256.984 667.751 259 663.719 259ZM759.063 259C755.031 259 753.015 256.984 753.015 252.952V163.672C753.015 159.64 755.031 157.624 759.063 157.624C763.095 157.624 765.111 159.64 765.111 163.672V217.744L799.383 188.296C802.455 185.656 805.287 185.848 807.879 188.872C810.519 191.944 810.327 194.776 807.303 197.368L781.023 220.048L806.151 248.632C808.839 251.752 808.695 254.584 805.719 257.128C802.647 259.768 799.767 259.576 797.079 256.552L771.807 228.04L765.111 233.8V252.952C765.111 256.984 763.095 259 759.063 259Z" fill="#EDEDED"/>
</svg>
