<svg width="306" height="64" viewBox="0 0 306 64" fill="none" xmlns="http://www.w3.org/2000/svg">
<path d="M77.5813 12.4943H94.1079C98.1142 12.3861 102.09 13.2119 105.721 14.9063C108.863 16.4205 111.466 18.8598 113.18 21.8966C114.976 25.2267 115.869 28.9686 115.771 32.7506C115.872 36.5516 114.987 40.3141 113.203 43.6716C111.502 46.7113 108.905 49.1524 105.766 50.6619C102.119 52.3577 98.1282 53.1834 94.1079 53.0739H77.5813V12.4943ZM93.3709 44.5873C94.9812 44.7144 96.6006 44.5192 98.1342 44.013C99.6682 43.5068 101.086 42.6998 102.304 41.6393C103.369 40.4237 104.179 39.0065 104.685 37.4719C105.191 35.9373 105.384 34.3165 105.252 32.7059C105.391 31.0949 105.201 29.4725 104.694 27.9369C104.187 26.4014 103.374 24.9847 102.304 23.7726C101.08 22.7232 99.6612 21.9263 98.1282 21.428C96.5946 20.9297 94.9779 20.7398 93.3709 20.8693H88.1003V44.5873H93.3709ZM147.551 40.9023H130.042C130.184 42.4341 130.903 43.8548 132.052 44.8776C133.365 45.7669 134.937 46.1915 136.519 46.0836C139.384 46.0464 142.171 45.1433 144.514 43.493L147.105 50.193C145.545 51.2994 143.808 52.1304 141.968 52.6497C140.027 53.2362 138.011 53.5371 135.983 53.5429C133.06 53.6166 130.162 53.0047 127.518 51.7563C125.214 50.633 123.3 48.8435 122.024 46.6196C120.698 44.224 120.035 41.518 120.104 38.7806C120.056 36.1231 120.678 33.4964 121.913 31.1426C123.07 28.9472 124.828 27.1267 126.982 25.8943C129.221 24.6259 131.757 23.9783 134.33 24.0183C136.121 23.9508 137.905 24.2689 139.561 24.9509C141.218 25.6329 142.709 26.6629 143.933 27.9713C146.443 30.9257 147.722 34.7313 147.507 38.6019L147.551 40.9023ZM129.93 35.9666H138.864C138.64 32.5876 137.151 30.8969 134.397 30.8969C131.643 30.8969 130.154 32.5876 129.93 35.9666ZM170.957 24.7999H180.984L168.344 53.0963H159.879L147.44 24.7999H158.16L164.391 40.7459L170.957 24.7999ZM198.94 24.7999H205.64V32.3486H198.94V53.1409H188.6V32.3039H183.396V24.7999H188.6C188.577 23.1204 188.911 21.4552 189.581 19.915C190.251 18.3747 191.242 16.9947 192.486 15.8666C195.631 13.6003 199.419 12.4026 203.295 12.4496L206.802 12.2263L207.382 19.6633L204.68 19.7749C203.132 19.7204 201.596 20.0584 200.213 20.7576C199.759 21.1177 199.404 21.5875 199.181 22.1228C198.958 22.6581 198.876 23.2412 198.94 23.8173V24.7999ZM214.685 51.7563C212.394 50.6122 210.49 48.8178 209.214 46.5974C207.887 44.2018 207.224 41.4956 207.293 38.7583C207.221 36.0276 207.884 33.3278 209.214 30.9416C210.491 28.7459 212.386 26.9749 214.663 25.8496C217.251 24.6722 220.061 24.0629 222.904 24.0629C225.747 24.0629 228.557 24.6722 231.145 25.8496C233.422 26.9749 235.317 28.7459 236.594 30.9416C237.924 33.3278 238.587 36.0276 238.515 38.7583C238.584 41.4956 237.921 44.2018 236.594 46.5974C235.292 48.8292 233.356 50.6244 231.033 51.7563C228.458 52.9501 225.653 53.5686 222.815 53.5686C219.976 53.5686 217.171 52.9501 214.596 51.7563H214.685ZM228.376 38.7583C228.376 33.9946 226.551 31.6116 222.904 31.6116C219.257 31.6116 217.432 33.9946 217.432 38.7583C217.432 43.522 219.257 45.9049 222.904 45.9049C226.551 45.9049 228.376 43.522 228.376 38.7583ZM243.183 53.0963V12.4943H253.367V53.0963H243.183ZM259.129 10.5959H269.849V19.8643H259.129V10.5959ZM259.352 53.0294V24.7999H269.603V53.0963L259.352 53.0294ZM281.641 51.7563C279.349 50.6122 277.446 48.8178 276.169 46.5974C274.843 44.2018 274.18 41.4956 274.248 38.7583C274.176 36.0276 274.839 33.3278 276.169 30.9416C277.446 28.7459 279.341 26.9749 281.618 25.8496C284.206 24.6722 287.016 24.0629 289.859 24.0629C292.702 24.0629 295.513 24.6722 298.1 25.8496C300.378 26.9749 302.273 28.7459 303.55 30.9416C304.879 33.3278 305.543 36.0276 305.47 38.7583C305.539 41.4956 304.876 44.2018 303.55 46.5974C302.259 48.8226 300.34 50.6172 298.033 51.7563C295.458 52.9501 292.653 53.5686 289.815 53.5686C286.976 53.5686 284.171 52.9501 281.596 51.7563H281.641ZM295.331 38.7583C295.331 33.9946 293.506 31.6116 289.859 31.6116C286.212 31.6116 284.388 33.9946 284.388 38.7583C284.388 43.522 286.212 45.9049 289.859 45.9049C293.506 45.9049 295.324 43.522 295.309 38.7583H295.331Z" fill="white"/>
<path d="M59.3137 35.2396C59.3752 42.3469 56.7732 49.2195 52.0201 54.504C47.2671 59.7884 40.7075 63.1015 33.6335 63.7907C33.6335 63.7907 15.1975 64.2617 9.09698 63.7907C7.9799 63.6566 6.91823 63.229 6.02001 62.5514C5.1218 61.8738 4.4191 60.9704 3.9834 59.933C4.84158 60.3111 5.76087 60.5314 6.69721 60.5834C8.69328 60.7629 12.1024 60.8526 16.8572 60.8526C23.8324 60.8526 31.4355 60.6507 31.5028 60.6507H31.6374C39.2374 60.0053 46.3047 56.4837 51.3966 50.8048C55.7639 45.9917 58.5302 39.942 59.3137 33.4902V35.2396Z" fill="#3770FF"/>
<path d="M57.0706 28.9821C57.1255 36.0926 54.5146 42.9656 49.7528 48.2464C44.991 53.5271 38.4237 56.8324 31.3455 57.5108C31.3455 57.5108 12.9095 57.9818 6.80907 57.5108C5.1615 57.2552 3.66332 56.4086 2.59433 55.1291C1.52535 53.8497 0.958675 52.2248 1.00017 50.558V7.11465C0.979605 5.43928 1.57263 3.81426 2.66744 2.54592C3.76226 1.27759 5.28323 0.453574 6.94365 0.229205C13.0665 -0.286643 31.48 0.229205 31.48 0.229205C38.573 0.942285 45.1395 4.29323 49.879 9.61833C54.6184 14.9434 57.1851 21.8543 57.0706 28.9821Z" fill="#3770FF"/>
</svg>
