<svg width="537" height="170" viewBox="0 0 537 170" fill="none" xmlns="http://www.w3.org/2000/svg">
<path d="M82.7799 169.92C48.3299 169.965 19.9199 142.96 18.2049 108.555V108.43C15.1322 108.043 12.2475 106.739 9.9275 104.687C7.60748 102.636 5.95991 99.9323 5.19988 96.93C3.39488 89.86 0.949878 79.3 0.659878 69.15C0.567902 66.2796 1.33362 63.447 2.85922 61.0138C4.38482 58.5807 6.60106 56.6575 9.22488 55.49C14.4949 53.125 22.0099 51.19 31.4849 49.725C36.7849 37.475 43.0399 26.825 49.6549 18.8C59.9599 6.325 71.1049 0 82.7799 0C94.4549 0 105.59 6.325 115.88 18.805C122.465 26.83 128.745 37.465 134.035 49.69C143.445 51.11 150.95 53.055 156.365 55.465C158.987 56.628 161.203 58.5464 162.73 60.9752C164.256 63.404 165.024 66.2327 164.935 69.1C164.645 79.305 162.205 89.87 160.4 96.925C159.641 99.9329 157.992 102.642 155.668 104.696C153.344 106.751 150.453 108.056 147.375 108.44V108.555C145.61 142.955 117.195 169.935 82.7499 169.915L82.7749 169.92H82.7799V169.92Z" fill="white"/>
<path d="M82.7398 10.7501C112.655 10.7501 136.91 75.0501 136.91 104.97C136.91 134.89 112.66 159.145 82.7348 159.145C52.8198 159.145 28.5648 134.895 28.5648 104.97C28.5698 75.0501 52.8248 10.7501 82.7398 10.7501Z" fill="#FCFBFA"/>
<path d="M151.43 62.645L129.33 70.44C129.33 70.44 132.75 80.84 132.78 80.915C132.815 80.995 154.8 78.08 154.8 78.08L151.43 62.645ZM14.05 62.645L36.15 70.44C36.15 70.44 32.735 80.84 32.7 80.915C32.67 80.995 10.69 78.08 10.69 78.08L14.055 62.645H14.05V62.645Z" fill="#252526"/>
<path d="M60 60.7999C63.45 60.7199 66.42 63.1999 66.965 66.5999C67.665 70.3599 68.13 74.1649 68.35 77.9899C68.371 79.0607 68.2737 80.1305 68.06 81.1799C67.8044 78.6124 67.4407 76.0568 66.97 73.5199C66.7068 71.8743 65.8561 70.3799 64.5754 69.3134C63.2948 68.247 61.671 67.6809 60.005 67.7199C51.705 67.8049 43.405 68.4349 35.185 69.6099C35.965 67.1899 36.8 64.7599 37.695 62.3599C45.095 61.3949 52.545 60.8749 60 60.7999V60.7999ZM136.81 102.565C117.3 101.56 100.635 95.3149 96.875 93.0849C93.94 91.6849 90.2 88.7099 89.125 81.2749C88.405 89.4649 89.95 96.9249 97.64 100.61C98.205 100.95 112.925 108.235 136.68 109.485C136.87 107.185 136.915 104.87 136.81 102.565V102.565ZM28.73 102.565C48.24 101.56 64.905 95.3149 68.665 93.0849C71.6 91.6849 75.34 88.7099 76.415 81.2749C77.135 89.4649 75.59 96.9249 67.9 100.61C67.335 100.95 52.615 108.235 28.86 109.485C28.67 107.185 28.625 104.87 28.73 102.565V102.565ZM105.425 60.7999C103.759 60.7609 102.135 61.327 100.854 62.3934C99.5739 63.4599 98.7231 64.9543 98.46 66.5999C97.76 70.3599 97.3 74.1649 97.08 77.9899C97.0564 79.0608 97.1537 80.1309 97.37 81.1799C97.645 78.4249 98.025 75.7999 98.455 73.5199C98.7201 71.8752 99.5714 70.382 100.852 69.3159C102.132 68.2499 103.754 67.683 105.42 67.7199C113.725 67.8049 122.02 68.4349 130.24 69.6099C129.46 67.1749 128.62 64.7599 127.73 62.3599C120.334 61.3969 112.888 60.876 105.43 60.7999H105.425V60.7999Z" fill="#E0E0E0"/>
<path d="M35.3547 54.9401C40.6747 42.0401 47.0547 30.8751 53.8047 22.6551C62.9997 11.5051 72.7298 5.8551 82.7248 5.8551C92.7248 5.8551 102.455 11.5051 111.645 22.6451C118.42 30.8551 124.825 42.0201 130.095 54.9351L130.355 55.5951L129.695 55.5001C127.815 55.2501 126.29 55.0701 124.425 54.8401H124.19L124.1 54.6301C118.115 40.6601 107.9 22.4151 94.7048 14.7951C91.0902 12.5943 86.9559 11.3933 82.7248 11.3151C78.4953 11.3942 74.3628 12.5952 70.7497 14.7951C57.5847 22.4051 47.3997 40.5651 41.3647 54.6101L41.2747 54.8201H41.0447C39.1647 55.0201 37.6347 55.2051 35.7697 55.4801L35.1147 55.5751L35.3547 54.9401V54.9401ZM137.43 95.8201C135.96 95.7801 134.48 95.7201 133.02 95.6351H132.57L132.51 95.1801C131.19 84.9101 128.24 72.8801 124.14 61.3251L123.875 60.4601L124.765 60.5801C126.44 60.8051 128.06 61.0551 129.64 61.3201L129.965 61.3701L130.07 61.6801C134.02 73.2201 136.82 85.1251 138.02 95.2051L138.095 95.8651L137.43 95.8151V95.8201V95.8201Z" fill="#56555C"/>
<path d="M132.6 69.7999C131.8 67.0799 130.95 64.3749 130.035 61.6899L129.935 61.3799L129.61 61.3249C128.055 61.0599 126.41 60.8099 124.735 60.5849L123.875 60.4599L124.175 61.3099C125.08 63.8699 125.93 66.4499 126.725 69.0399C129.535 69.3649 131.125 69.5899 132.6 69.7999V69.7999Z" fill="#252526"/>
<path d="M27.86 94.9749C29.06 84.8949 31.885 72.9899 35.81 61.4499L35.915 61.1399L36.24 61.0799C37.795 60.8199 39.44 60.5649 41.115 60.3449L42.005 60.2249L41.705 61.0699C37.615 72.6249 34.645 84.6449 33.34 94.9199L33.28 95.3799H32.83C31.365 95.4649 29.88 95.5249 28.42 95.5599H27.76L27.86 94.9749V94.9749Z" fill="#56555C"/>
<path d="M36.2398 61.0799L35.9148 61.1299L35.8148 61.4449C34.8998 64.1349 34.0448 66.8449 33.2498 69.5699C35.9998 69.2199 36.7948 69.2599 39.0948 69.0149C39.9048 66.3799 40.7748 63.6949 41.7298 61.0649L42.0298 60.2249L41.1348 60.3449C39.4998 60.567 37.868 60.812 36.2398 61.0799V61.0799Z" fill="#252526"/>
<path d="M82.7399 164.01C70.8825 164.011 59.2993 160.443 49.4972 153.771C39.6951 147.099 32.1278 137.631 27.7799 126.6C24.7901 118.95 23.408 110.767 23.7199 102.56V102.19H24.0899C26.0149 102.14 27.3299 102.09 28.6999 102.02H29.1299V102.445C28.7716 109.702 29.8915 116.956 32.4216 123.767C34.9517 130.578 38.8393 136.804 43.8484 142.067C48.8576 147.33 54.8838 151.52 61.5614 154.384C68.2391 157.247 75.4289 158.724 82.6946 158.725C89.9604 158.725 97.1505 157.25 103.829 154.388C110.507 151.525 116.534 147.336 121.544 142.074C126.554 136.812 130.443 130.587 132.974 123.776C135.506 116.966 136.627 109.712 136.27 102.455V102.025H136.7C138.615 102.125 139.935 102.165 141.31 102.195H141.68V102.565C142.02 110.76 140.67 118.938 137.715 126.59C133.377 137.63 125.813 147.106 116.009 153.783C106.205 160.46 94.6165 164.028 82.7549 164.02H82.7399V164.01V164.01Z" fill="#56555C"/>
<path d="M29.3148 109.49C29.1248 107.14 29.0748 104.775 29.1698 102.415V101.985H28.7398C27.3598 102.06 26.0398 102.11 24.1298 102.16H23.7598V102.525C23.6798 104.895 23.7298 107.265 23.9198 109.625H24.0948C25.8748 109.625 27.6148 109.545 29.2698 109.465L29.3148 109.49V109.49ZM141.725 102.185H141.355C139.96 102.185 138.64 102.11 136.745 102.015H136.315V102.44C136.415 104.78 136.365 107.12 136.18 109.45L141.58 109.685C141.77 107.32 141.82 104.955 141.74 102.585L141.725 102.185V102.185Z" fill="#252526"/>
<path d="M144.77 103.39C133.476 103.432 122.226 101.986 111.31 99.0901C106.61 97.8551 102.035 96.1901 97.6399 94.1351L97.5349 94.0551C88.3099 89.6451 87.9699 80.805 88.8299 72.745C89.0449 70.71 88.2999 68.0151 86.1549 66.5851C85.1541 65.9173 83.9779 65.561 82.7749 65.561C81.5718 65.561 80.3956 65.9173 79.3949 66.5851C77.2449 68.0051 76.4999 70.6951 76.7149 72.7251C77.5749 80.7901 77.2149 89.6301 68.0149 94.0401L67.9099 94.0901C63.5123 96.1713 58.9353 97.8498 54.2349 99.105C43.3199 102.005 32.0699 103.445 20.7749 103.405H20.7249C18.4461 103.377 16.2406 102.596 14.4524 101.183C12.6642 99.7706 11.394 97.8056 10.8399 95.595C9.08986 88.83 6.75486 78.695 6.48486 69.185C6.42554 67.324 6.92173 65.4875 7.91016 63.9096C8.8986 62.3316 10.3345 61.0838 12.0349 60.325C24.7349 54.69 50.4449 52.5701 61.4099 52.7151C65.2349 52.6851 68.9099 54.2051 71.5999 56.9251C75.1082 55.2806 78.9257 54.3995 82.7999 54.3401C86.6734 54.3961 90.4908 55.2738 93.9999 56.9151C95.3208 55.5774 96.8954 54.5169 98.6314 53.7957C100.367 53.0745 102.23 52.7071 104.11 52.7151C110.7 52.6151 139.03 53.84 153.525 60.29C155.223 61.0421 156.658 62.2836 157.647 63.8556C158.635 65.4277 159.133 67.2589 159.075 69.115C158.805 78.64 156.44 88.83 154.745 95.58C154.191 97.7906 152.921 99.7556 151.132 101.168C149.344 102.581 147.139 103.362 144.86 103.39H144.77V103.39ZM105.49 61.2201C103.917 61.1851 102.384 61.72 101.174 62.7261C99.9634 63.7322 99.1577 65.1418 98.9049 66.695C98.2049 70.445 97.7449 74.2301 97.5199 78.0351C97.4699 82.3851 99.0299 85.3601 102.13 86.8851C113.75 92.0651 127.25 94.6251 143.405 94.7051C144.007 94.702 144.592 94.5004 145.068 94.1317C145.544 93.7629 145.886 93.2475 146.04 92.6651C147.575 86.6651 149.645 77.74 149.885 69.535C149.897 69.1508 149.794 68.7716 149.59 68.4463C149.385 68.1211 149.087 67.8646 148.735 67.71C137.715 62.755 114.1 61.0601 105.49 61.1951V61.2201ZM16.7399 67.695C16.3888 67.8504 16.0922 68.1072 15.8881 68.4324C15.6841 68.7576 15.582 69.1364 15.5949 69.5201C15.8349 77.7051 17.9049 86.6551 19.4399 92.6501C19.7499 93.8501 20.8349 94.69 22.0749 94.695C38.2449 94.615 51.7249 92.055 63.3799 86.865C66.4899 85.35 68.0449 82.3651 67.9949 78.0001C67.7706 74.1995 67.3064 70.417 66.6049 66.6751C66.3519 65.1209 65.5455 63.7107 64.3343 62.7045C63.1232 61.6982 61.589 61.1639 60.0149 61.2C54.9999 61.12 29.2249 62.135 16.7449 67.7L16.7399 67.695V67.695Z" fill="#252526"/>
<path d="M202.707 110.703C197.551 110.703 193.355 109.016 190.121 105.641C186.887 102.242 185.27 97.707 185.27 92.0352V90.8398C185.27 87.0664 185.984 83.7031 187.414 80.75C188.867 77.7734 190.883 75.4531 193.461 73.7891C196.062 72.1016 198.875 71.2578 201.898 71.2578C206.844 71.2578 210.688 72.8867 213.43 76.1445C216.172 79.4023 217.543 84.0664 217.543 90.1367V92.8438H191.773C191.867 96.5938 192.957 99.6289 195.043 101.949C197.152 104.246 199.824 105.395 203.059 105.395C205.355 105.395 207.301 104.926 208.895 103.988C210.488 103.051 211.883 101.809 213.078 100.262L217.051 103.355C213.863 108.254 209.082 110.703 202.707 110.703ZM201.898 76.6016C199.273 76.6016 197.07 77.5625 195.289 79.4844C193.508 81.3828 192.406 84.0547 191.984 87.5H211.039V87.0078C210.852 83.7031 209.961 81.1484 208.367 79.3438C206.773 77.5156 204.617 76.6016 201.898 76.6016ZM223.555 90.6641C223.555 84.7344 224.926 80.0234 227.668 76.5312C230.41 73.0156 234.043 71.2578 238.566 71.2578C243.207 71.2578 246.828 72.8984 249.43 76.1797L249.746 71.9609H255.688V109.086C255.688 114.008 254.223 117.887 251.293 120.723C248.387 123.559 244.473 124.977 239.551 124.977C236.809 124.977 234.125 124.391 231.5 123.219C228.875 122.047 226.871 120.441 225.488 118.402L228.863 114.5C231.652 117.945 235.062 119.668 239.094 119.668C242.258 119.668 244.719 118.777 246.477 116.996C248.258 115.215 249.148 112.707 249.148 109.473V106.203C246.547 109.203 242.996 110.703 238.496 110.703C234.043 110.703 230.434 108.91 227.668 105.324C224.926 101.738 223.555 96.8516 223.555 90.6641ZM230.094 91.4023C230.094 95.6914 230.973 99.0664 232.73 101.527C234.488 103.965 236.949 105.184 240.113 105.184C244.215 105.184 247.227 103.32 249.148 99.5938V82.2266C247.156 78.5938 244.168 76.7773 240.184 76.7773C237.02 76.7773 234.547 78.0078 232.766 80.4688C230.984 82.9297 230.094 86.5742 230.094 91.4023ZM263.984 90.6641C263.984 84.7344 265.355 80.0234 268.098 76.5312C270.84 73.0156 274.473 71.2578 278.996 71.2578C283.637 71.2578 287.258 72.8984 289.859 76.1797L290.176 71.9609H296.117V109.086C296.117 114.008 294.652 117.887 291.723 120.723C288.816 123.559 284.902 124.977 279.98 124.977C277.238 124.977 274.555 124.391 271.93 123.219C269.305 122.047 267.301 120.441 265.918 118.402L269.293 114.5C272.082 117.945 275.492 119.668 279.523 119.668C282.688 119.668 285.148 118.777 286.906 116.996C288.688 115.215 289.578 112.707 289.578 109.473V106.203C286.977 109.203 283.426 110.703 278.926 110.703C274.473 110.703 270.863 108.91 268.098 105.324C265.355 101.738 263.984 96.8516 263.984 90.6641ZM270.523 91.4023C270.523 95.6914 271.402 99.0664 273.16 101.527C274.918 103.965 277.379 105.184 280.543 105.184C284.645 105.184 287.656 103.32 289.578 99.5938V82.2266C287.586 78.5938 284.598 76.7773 280.613 76.7773C277.449 76.7773 274.977 78.0078 273.195 80.4688C271.414 82.9297 270.523 86.5742 270.523 91.4023ZM312.465 76.5664C315.348 73.0273 319.098 71.2578 323.715 71.2578C331.754 71.2578 335.809 75.793 335.879 84.8633V110H329.375V84.8281C329.352 82.0859 328.719 80.0586 327.477 78.7461C326.258 77.4336 324.348 76.7773 321.746 76.7773C319.637 76.7773 317.785 77.3398 316.191 78.4648C314.598 79.5898 313.355 81.0664 312.465 82.8945V110H305.961V56H312.465V76.5664ZM361.402 110.703C356.246 110.703 352.051 109.016 348.816 105.641C345.582 102.242 343.965 97.707 343.965 92.0352V90.8398C343.965 87.0664 344.68 83.7031 346.109 80.75C347.562 77.7734 349.578 75.4531 352.156 73.7891C354.758 72.1016 357.57 71.2578 360.594 71.2578C365.539 71.2578 369.383 72.8867 372.125 76.1445C374.867 79.4023 376.238 84.0664 376.238 90.1367V92.8438H350.469C350.562 96.5938 351.652 99.6289 353.738 101.949C355.848 104.246 358.52 105.395 361.754 105.395C364.051 105.395 365.996 104.926 367.59 103.988C369.184 103.051 370.578 101.809 371.773 100.262L375.746 103.355C372.559 108.254 367.777 110.703 361.402 110.703ZM360.594 76.6016C357.969 76.6016 355.766 77.5625 353.984 79.4844C352.203 81.3828 351.102 84.0547 350.68 87.5H369.734V87.0078C369.547 83.7031 368.656 81.1484 367.062 79.3438C365.469 77.5156 363.312 76.6016 360.594 76.6016ZM407.281 110C406.906 109.25 406.602 107.914 406.367 105.992C403.344 109.133 399.734 110.703 395.539 110.703C391.789 110.703 388.707 109.648 386.293 107.539C383.902 105.406 382.707 102.711 382.707 99.4531C382.707 95.4922 384.207 92.4219 387.207 90.2422C390.23 88.0391 394.473 86.9375 399.934 86.9375H406.262V83.9492C406.262 81.6758 405.582 79.8711 404.223 78.5352C402.863 77.1758 400.859 76.4961 398.211 76.4961C395.891 76.4961 393.945 77.082 392.375 78.2539C390.805 79.4258 390.02 80.8438 390.02 82.5078H383.48C383.48 80.6094 384.148 78.7812 385.484 77.0234C386.844 75.2422 388.672 73.8359 390.969 72.8047C393.289 71.7734 395.832 71.2578 398.598 71.2578C402.98 71.2578 406.414 72.3594 408.898 74.5625C411.383 76.7422 412.672 79.7539 412.766 83.5977V101.105C412.766 104.598 413.211 107.375 414.102 109.438V110H407.281ZM396.488 105.043C398.527 105.043 400.461 104.516 402.289 103.461C404.117 102.406 405.441 101.035 406.262 99.3477V91.543H401.164C393.195 91.543 389.211 93.875 389.211 98.5391C389.211 100.578 389.891 102.172 391.25 103.32C392.609 104.469 394.355 105.043 396.488 105.043ZM421.379 90.6641C421.379 84.8281 422.762 80.1406 425.527 76.6016C428.293 73.0391 431.914 71.2578 436.391 71.2578C440.844 71.2578 444.371 72.7812 446.973 75.8281V56H453.477V110H447.5L447.184 105.922C444.582 109.109 440.961 110.703 436.32 110.703C431.914 110.703 428.316 108.898 425.527 105.289C422.762 101.68 421.379 96.9688 421.379 91.1562V90.6641ZM427.883 91.4023C427.883 95.7148 428.773 99.0898 430.555 101.527C432.336 103.965 434.797 105.184 437.938 105.184C442.062 105.184 445.074 103.332 446.973 99.6289V82.1562C445.027 78.5703 442.039 76.7773 438.008 76.7773C434.82 76.7773 432.336 78.0078 430.555 80.4688C428.773 82.9297 427.883 86.5742 427.883 91.4023ZM463.742 106.59C463.742 105.465 464.07 104.527 464.727 103.777C465.406 103.027 466.414 102.652 467.75 102.652C469.086 102.652 470.094 103.027 470.773 103.777C471.477 104.527 471.828 105.465 471.828 106.59C471.828 107.668 471.477 108.57 470.773 109.297C470.094 110.023 469.086 110.387 467.75 110.387C466.414 110.387 465.406 110.023 464.727 109.297C464.07 108.57 463.742 107.668 463.742 106.59ZM489.652 110H483.148V71.9609H489.652V110ZM482.621 61.8711C482.621 60.8164 482.938 59.9258 483.57 59.1992C484.227 58.4727 485.188 58.1094 486.453 58.1094C487.719 58.1094 488.68 58.4727 489.336 59.1992C489.992 59.9258 490.32 60.8164 490.32 61.8711C490.32 62.9258 489.992 63.8047 489.336 64.5078C488.68 65.2109 487.719 65.5625 486.453 65.5625C485.188 65.5625 484.227 65.2109 483.57 64.5078C482.938 63.8047 482.621 62.9258 482.621 61.8711ZM498.371 90.6289C498.371 86.9023 499.098 83.5508 500.551 80.5742C502.027 77.5977 504.066 75.3008 506.668 73.6836C509.293 72.0664 512.281 71.2578 515.633 71.2578C520.812 71.2578 524.996 73.0508 528.184 76.6367C531.395 80.2227 533 84.9922 533 90.9453V91.4023C533 95.1055 532.285 98.4336 530.855 101.387C529.449 104.316 527.422 106.602 524.773 108.242C522.148 109.883 519.125 110.703 515.703 110.703C510.547 110.703 506.363 108.91 503.152 105.324C499.965 101.738 498.371 96.9922 498.371 91.0859V90.6289ZM504.91 91.4023C504.91 95.6211 505.883 99.0078 507.828 101.562C509.797 104.117 512.422 105.395 515.703 105.395C519.008 105.395 521.633 104.105 523.578 101.527C525.523 98.9258 526.496 95.293 526.496 90.6289C526.496 86.457 525.5 83.082 523.508 80.5039C521.539 77.9023 518.914 76.6016 515.633 76.6016C512.422 76.6016 509.832 77.8789 507.863 80.4336C505.895 82.9883 504.91 86.6445 504.91 91.4023Z" fill="white"/>
</svg>
