<svg width="231" height="41" viewBox="0 0 231 41" fill="none" xmlns="http://www.w3.org/2000/svg">
<path d="M57.5848 31.496L57.9418 28.866C59.5978 29.923 62.3248 31.238 65.9448 31.238C70.1248 31.238 72.4688 29.588 72.4688 26.674C72.4688 19.016 57.3048 24.121 57.3048 14.22C57.3048 9.527 60.3628 7 65.8678 7C71.1688 7 73.6918 9.192 74.1508 12.879L71.5508 13.395C71.1438 10.635 69.2828 9.321 65.8168 9.321C62.1468 9.321 59.9808 10.971 59.9808 13.961C59.9808 21.955 75.0178 16.411 75.1198 26.622C75.1448 31.392 72.0868 33.739 65.9948 33.739C61.5098 33.688 58.9868 32.424 57.5848 31.496ZM81.8978 17.984V28.917C81.8978 30.929 82.7898 31.393 84.1408 31.393C85.3898 31.393 86.2048 31.032 86.7658 30.8L86.9698 33.094C85.8492 33.4937 84.6675 33.6948 83.4778 33.688C80.8018 33.688 79.2978 32.733 79.2978 28.943V17.984H76.0878V15.767H79.2978V10.66H81.8978V15.766H87.3778V17.983L81.8978 17.984ZM98.5398 15.638L98.3618 18.216C98.1578 18.139 97.6738 18.062 97.0368 18.062C94.4368 18.062 92.7798 21.156 92.7798 23.992V33.665H90.1798V15.767H92.4498L92.6278 19.119C93.5958 16.901 95.1508 15.406 96.9848 15.406C97.8018 15.406 98.2598 15.535 98.5398 15.638ZM114.623 31.883C113.731 32.656 111.412 33.713 107.843 33.713C102.287 33.713 99.5098 30.361 99.5098 24.663C99.5098 19.273 102.237 15.406 108.047 15.406C112.635 15.406 114.521 17.804 114.521 20.434C114.521 24.869 110.799 26.261 102.237 26.622C102.771 30.078 104.938 31.392 108.047 31.392C111.08 31.392 113.373 30.078 114.113 29.485L114.623 31.883ZM102.109 24.508C109.602 24.224 111.946 23.374 111.946 20.615C111.946 19.222 110.978 17.701 107.971 17.701C104.785 17.701 102.185 19.48 102.109 24.508ZM132.131 15.767V33.713H129.965L129.685 30.748C128.538 32.501 126.575 33.713 123.874 33.713C119.261 33.713 116.279 30.439 116.279 24.843C116.279 18.938 119.566 15.406 124.23 15.406C126.856 15.406 128.666 16.437 129.71 17.933L129.965 15.793H132.131V15.767ZM129.532 26.442V23.296C129.532 20.846 128.308 17.675 124.485 17.675C120.917 17.675 118.853 20.408 118.853 24.817C118.853 29.047 120.765 31.367 124.23 31.367C127.544 31.393 129.532 29.253 129.532 26.442ZM161.924 22.368V33.765H159.325V22.78C159.325 19.635 158.101 17.778 155.4 17.778C152.163 17.778 150.354 20.331 150.354 22.651V33.74H147.805V22.574C147.805 19.506 146.556 17.752 143.905 17.752C140.668 17.752 138.885 20.331 138.885 22.677V33.74H136.285V15.767H138.298L138.655 18.757C139.7 16.824 141.688 15.406 144.568 15.406C147.269 15.406 149.105 16.669 149.895 19.042C150.914 16.927 153.004 15.406 156.011 15.406C159.809 15.406 161.924 17.726 161.924 22.368ZM184.507 7.387L175.128 23.322V33.657H170.26V23.322L160.881 7.387H166.361L172.733 18.758L179.155 7.387H184.507ZM198.218 15.767V33.713H194.624L194.038 31.135C192.891 32.708 190.98 33.713 188.482 33.713C183.894 33.713 180.708 30.387 180.708 24.817C180.708 18.938 184.2 15.406 188.813 15.406C191.235 15.406 192.917 16.308 194.013 17.623L194.42 15.767H198.218ZM193.451 25.797V23.27C193.273 21.233 192.127 19.454 189.603 19.454C187.054 19.454 185.322 21.284 185.322 24.74C185.322 27.989 186.825 29.665 189.425 29.665C191.973 29.639 193.451 28.015 193.451 25.797ZM211.802 15.69L211.521 20.253C211.241 20.15 210.731 19.996 209.941 19.996C208.106 19.996 206.399 21.672 206.399 24.998V33.648H201.607V15.767H205.456L205.864 18.397C206.807 16.567 208.234 15.406 210.043 15.406C210.961 15.406 211.572 15.587 211.802 15.69ZM229.515 7.387V33.713H225.514L225.055 31.263C223.807 32.682 221.921 33.713 219.398 33.713C215.192 33.713 212.083 30.8 212.083 24.843C212.083 18.887 215.37 15.406 220.595 15.406C222.328 15.406 223.704 15.741 224.749 16.179V7.387H229.515ZM224.723 25.23V20.537C223.882 19.944 222.711 19.454 221.13 19.454C218.581 19.454 216.874 21.13 216.874 24.766C216.874 28.273 218.454 29.639 220.518 29.639C222.812 29.639 224.723 27.912 224.723 25.23ZM42.0998 23.342C41.6398 23.029 41.1808 22.691 40.7468 22.378C37.9368 20.372 34.6168 16.908 33.9788 16.23C33.6468 14.25 33.0588 11.853 31.1958 9.092C29.7398 6.487 27.1088 4.976 25.5258 4.272C24.1728 0.73 17.4818 0.208 14.9018 0.026C14.5958 0 14.2898 0 13.9818 0C8.87578 0 7.82878 3.569 7.62478 5.054C6.34778 5.132 5.24978 5.444 4.30478 5.992C1.36678 7.737 0.549779 11.254 0.370779 13.885C0.217779 16.335 0.345779 17.298 0.370779 17.48C0.574779 19.46 1.11078 20.945 3.12878 22.56C1.80078 28.684 1.31578 35.82 1.28978 35.9L1.26478 36.082L1.36678 36.238C1.46878 36.395 4.20178 40.016 10.2028 40.381C10.4588 40.407 10.7398 40.407 10.9948 40.407C17.5578 40.407 19.9588 35.223 20.0608 35.014L20.1628 34.806L20.0868 34.597C20.0868 34.597 19.4988 32.957 20.3928 29.934C21.1328 27.434 23.7638 26.99 24.4528 26.938C27.6198 29.387 36.4308 34.076 38.7298 35.014C39.8788 35.484 40.9768 35.744 41.9468 35.744C43.0968 35.744 43.9648 35.379 44.3728 34.754C45.0628 33.634 44.9348 32.565 43.9898 31.601C44.2458 31.653 44.5518 31.68 44.8838 31.731C45.2471 31.786 45.6143 31.8124 45.9818 31.81C47.3868 31.81 48.1788 31.132 48.3818 29.726C48.6118 28.032 46.0588 26.078 42.0998 23.343V23.342ZM11.0198 39.911H10.9698H11.3008H11.0198ZM13.8798 0.547H14.1868C14.1108 0.547 13.9818 0.521 13.8798 0.547ZM17.4298 0.834C17.7878 0.886 18.1708 0.938 18.5538 0.99C18.1708 0.938 17.7868 0.86 17.4298 0.834Z" fill="#2D9BDA"/>
<path d="M40.6199 22.8213C37.4269 20.5553 33.6729 16.4913 33.6729 16.4913C33.3409 14.4063 32.7789 12.1143 30.9409 9.40526C29.4589 6.74726 26.6759 5.28826 25.2969 4.68926C24.2749 1.30326 17.5839 0.755258 15.0559 0.573258C8.13486 0.0532581 8.26286 5.81026 8.26286 5.81026L5.78486 14.1733L3.92086 22.2493C2.49086 28.5003 2.00586 35.9503 2.00586 35.9503C2.00586 35.9503 4.61086 39.5193 10.4589 39.8843C17.3539 40.3003 19.8059 34.8043 19.8059 34.8043C19.8059 34.8043 19.1419 33.0583 20.1119 29.8023C21.0819 26.5453 24.8369 26.4153 24.8369 26.4153C27.8759 28.8383 36.8909 33.6313 39.1379 34.5433C41.7939 35.6373 43.6579 35.2733 44.1439 34.4913C44.6289 33.7103 44.8339 32.7203 43.3779 31.5733C42.8839 31.1888 42.3814 30.8153 41.8709 30.4533C42.9429 30.7133 43.0709 30.9743 45.1649 31.2353C46.6469 31.4173 47.8209 31.4173 48.0769 29.6983C48.2809 27.9263 43.9909 25.2173 40.6199 22.8203V22.8213Z" fill="#121A2C"/>
<path d="M11.1474 35.4036C7.11241 35.2736 4.76341 33.8666 3.97141 33.3196L3.69141 35.3516C3.69141 35.3516 6.78141 38.3216 10.8664 38.3216C12.3224 38.3216 15.1824 38.4776 17.9914 34.7266C17.9914 34.7266 17.8894 33.9446 17.9414 32.8506C16.9194 33.8666 15.4124 35.5336 11.1474 35.4036Z" fill="#FEFFFF"/>
<path d="M3.68945 33.1108C3.68945 33.1108 3.79145 33.1898 3.97045 33.3198L3.99645 33.0848L3.68945 33.1108ZM18.4265 32.3818L17.9665 32.4078C17.9665 32.5638 17.9415 32.6948 17.9415 32.8508C18.1195 32.6688 18.2735 32.5118 18.4265 32.3818Z" fill="#121A2C"/>
<path d="M31.5521 13.7546C29.8921 9.61265 26.8521 6.33065 23.4561 5.20965C20.0591 4.08965 14.9261 3.07365 13.3431 6.98165C13.3431 6.98165 5.83509 20.2676 5.34909 23.3936L4.02109 33.0846L3.99609 33.3196C4.76209 33.8666 7.13709 35.2736 11.1721 35.4036C15.4371 35.5336 16.9691 33.8666 17.9651 32.8236C17.9651 32.6936 17.9911 32.5376 17.9911 32.3816C18.1181 30.8966 18.5011 28.9946 19.6511 27.5356C21.8211 24.7746 25.6011 24.6706 25.6011 24.6706C25.6011 24.6706 28.4611 25.0086 30.4531 22.8986C32.4451 20.7886 33.1861 17.9226 31.5521 13.7546Z" fill="#016666"/>
<path d="M34.0043 25.2703C34.0043 25.2703 36.8143 27.8233 37.8353 28.7093C38.8573 29.5943 43.1223 32.6423 43.1473 33.3193C43.1473 33.4763 32.4473 28.3183 32.4473 28.3183C32.4473 28.3183 23.2783 21.8313 23.3303 21.6483C23.3803 21.4663 23.7133 20.1643 23.9173 20.0863C24.1213 20.0083 28.4373 20.1643 28.4373 20.1643L34.0043 25.2703Z" fill="#79455B"/>
<path d="M23.8678 21.7803C24.6078 21.8833 28.7958 23.4983 31.2218 25.5303C33.6737 27.5623 37.7858 30.4803 38.9858 31.0533C40.1858 31.6533 43.2257 32.9293 43.1487 33.4243C43.0717 33.9193 42.7148 34.7533 39.9307 33.6323C37.1467 32.4863 29.9208 28.1103 28.8988 27.4063C27.8768 26.7033 22.7188 23.1083 22.7188 23.1083L23.8678 21.7793V21.7803Z" fill="#C8842C"/>
<path d="M15.6433 13.5992C16.6653 13.3902 19.7553 13.4162 22.1303 15.7612C24.5053 18.1062 24.9143 19.9812 24.2503 21.6492C23.5863 23.3162 22.3603 24.5672 19.9083 23.2382C17.4573 21.9092 15.1083 20.2682 14.3663 18.2362C13.6263 16.2042 15.6433 13.5992 15.6433 13.5992Z" fill="#02A484"/>
<path d="M1.06017 17.4542C1.29017 19.5642 1.87717 20.9712 4.27817 22.6912C5.37617 23.4722 6.55117 24.0982 9.05417 23.8892C11.5822 23.6812 13.3702 21.9612 14.2122 20.0862C15.0552 18.2102 16.4852 13.8862 15.4382 10.3952C14.4172 6.90419 12.5012 6.43519 11.5562 6.12219C10.6122 5.78319 7.26617 4.97619 4.71217 6.48719C2.15817 7.99719 1.21317 11.0722 1.03517 13.9642C0.881171 16.5942 1.06017 17.4542 1.06017 17.4542Z" fill="#121A2C"/>
<path d="M5.50318 8.15407C5.50318 8.15407 6.80618 7.29407 9.23318 7.81507C11.6582 8.33707 13.1652 10.1081 13.1652 12.2701C13.1652 14.4331 12.9102 18.3401 10.9432 20.3201C9.33418 21.9351 5.12018 22.7691 3.43518 19.4871C1.74918 16.2041 5.91218 13.7811 5.91218 13.7811L5.50318 8.15407Z" fill="#2D9BDA"/>
<path d="M18.2479 10.3952C17.9169 9.32615 18.7849 7.94515 20.9809 7.47715C23.1769 7.00715 25.4509 7.47715 26.6249 9.58715C27.7999 11.6972 25.5779 12.7392 24.3009 13.0262C23.0239 13.3122 19.0659 13.0262 18.2479 10.3952Z" fill="#02A484"/>
<path d="M21.3119 14.4324C21.5159 12.8954 22.4869 11.7754 23.4569 11.6714C23.9169 11.6194 24.2749 11.8534 24.5299 12.1924C24.4074 11.793 24.208 11.4214 23.9429 11.0984C22.8699 9.90044 20.8009 10.8634 20.1629 13.2344C19.5249 15.6044 20.4179 17.5074 21.3379 17.7674C21.7719 17.8974 22.1289 17.8714 22.4609 17.7934C22.3849 17.7674 22.3339 17.7674 22.2569 17.7154C20.8779 17.0124 21.2359 15.0054 21.3119 14.4324Z" fill="#FDFFFF"/>
<path d="M24.5305 12.1924C24.9135 13.3904 24.7095 14.9024 24.2755 15.8134C23.8405 16.6994 23.2785 17.5334 22.4355 17.7674" fill="#121A2C"/>
<path d="M24.2746 15.8133C24.7086 14.9013 24.8876 13.3903 24.5306 12.1923C24.2746 11.8533 23.8916 11.6193 23.4576 11.6713C22.4876 11.7753 21.4906 12.8953 21.3126 14.4323C21.2356 15.0063 20.9036 17.0383 22.2576 17.6893C22.3336 17.7153 22.3846 17.7413 22.4616 17.7673C23.3046 17.5323 23.8656 16.6993 24.2746 15.8133Z" fill="#121A2C"/>
<path d="M44.7567 28.8133C44.1177 28.1883 43.3007 27.4843 43.5567 27.1723C43.7087 26.9893 44.0917 26.9633 44.6537 27.1723C43.4797 26.3383 41.9727 25.3223 40.3637 24.1763C36.7367 21.5963 32.4467 17.5063 32.0127 17.1943C30.5317 16.1003 30.2757 17.2723 30.2507 17.8453C30.2247 18.4183 30.2247 19.1223 28.9227 19.7213C27.6197 20.3213 26.1127 19.7473 25.2197 19.6173C24.3257 19.4873 24.4027 20.2163 24.8367 20.5813C26.2917 21.7793 41.3337 29.2303 44.5007 29.8813C44.6027 29.9073 44.6797 29.9073 44.7817 29.9333C44.9097 29.7253 45.2157 29.2563 44.7567 28.8133Z" fill="#FFCC34"/>
<path d="M46.9265 29.4644C47.0285 29.0474 46.0835 28.2404 44.6285 27.1724C44.0665 26.9374 43.6835 26.9894 43.5305 27.1724C43.3005 27.4584 44.1175 28.1884 44.7305 28.8124C45.1905 29.2564 44.9095 29.7254 44.7045 29.9334C46.4415 30.2724 46.7735 30.1934 46.9265 29.4644ZM31.6795 20.7634C31.9355 21.4144 33.1865 22.1184 33.8505 21.9614C34.5405 21.8054 34.2085 21.1014 33.3655 20.2684C32.5225 19.4604 31.1955 19.4864 31.6795 20.7634Z" fill="#C8842C"/>
<path d="M7.26562 23.498L7.41863 37.931L9.15563 38.478L8.92562 23.498H7.26562Z" fill="#121A2C"/>
<path d="M10.7896 18.2625C9.43663 21.3885 7.16363 21.2845 5.22363 20.7895C3.18063 20.2685 2.64363 18.2095 2.56763 16.2825C2.54163 15.2405 2.92463 10.9155 4.25263 9.14447C5.58063 7.37347 8.03263 7.81547 8.77263 8.02447C9.51363 8.23247 12.2726 9.61347 11.8626 13.0005C11.4546 16.5695 11.3016 17.0905 10.7906 18.2625H10.7896Z" fill="white"/>
<path d="M3.99609 17.5595L4.43009 15.9955C4.43009 15.9955 6.26909 16.9855 7.13709 16.6215C7.98009 16.2565 7.59709 15.3445 6.65209 14.9545C5.70709 14.5375 4.48209 13.8855 4.96609 11.9585C5.45209 10.0305 6.72809 9.45747 9.79309 10.6295L9.23109 12.2965C9.23109 12.2965 6.72909 11.0205 6.49909 12.3745C6.34509 13.3905 9.94609 13.5215 9.30809 16.3605C8.41409 19.9305 3.99609 17.5595 3.99609 17.5595Z" fill="#2D9BDA"/>
</svg>
