<svg xmlns="http://www.w3.org/2000/svg" width="502.02" height="76.496"><defs><linearGradient id="a" y1=".5" x2="1" y2=".5" gradientUnits="objectBoundingBox"><stop offset="0" stop-color="#ed2e7c"/><stop offset="1" stop-color="#a8288f"/></linearGradient></defs><g data-name="Group 94"><g data-name="Group 86" fill="#be1e2d"><path data-name="Path 200" d="M374.26 60.91H350.2V14.53h5.43v41.46h18.63z"/><path data-name="Path 201" d="M394.51 61.68q-7.335 0-11.72-4.64t-4.38-12.31q0-8.34 4.56-13.03t12.32-4.69q7.41 0 11.56 4.56t4.16 12.65q0 7.92-4.48 12.69t-12.02 4.77zm.39-30.2a10.1 10.1 0 00-8.09 3.48q-2.97 3.48-2.98 9.59 0 5.88 3.01 9.28a10.243 10.243 0 008.05 3.4c3.43 0 6.06-1.11 7.91-3.33s2.77-5.38 2.77-9.48q0-6.21-2.77-9.57c-1.84-2.25-4.48-3.37-7.9-3.37z"/><path data-name="Path 202" d="M447.74 58.25q0 18.24-17.46 18.24a23.476 23.476 0 01-10.74-2.33v-5.3a22.047 22.047 0 0010.67 3.1q12.225 0 12.22-13v-3.62h-.13a13.394 13.394 0 01-21.32 1.93q-3.765-4.41-3.77-11.85 0-8.445 4.06-13.42a13.567 13.567 0 0111.11-4.98q6.69 0 9.93 5.37h.13V27.8h5.3zm-5.3-12.32v-4.88a9.481 9.481 0 00-2.67-6.76 8.764 8.764 0 00-6.65-2.81 9.223 9.223 0 00-7.7 3.57q-2.775 3.57-2.78 10.01 0 5.535 2.67 8.85a8.614 8.614 0 007.07 3.31 9.227 9.227 0 007.26-3.17 11.838 11.838 0 002.8-8.12z"/><path data-name="Path 203" d="M461.2 19.38a3.358 3.358 0 01-2.43-.97 3.538 3.538 0 010-4.93 3.336 3.336 0 012.43-.99 3.411 3.411 0 012.47.99 3.452 3.452 0 010 4.9 3.38 3.38 0 01-2.47 1zm2.58 41.53h-5.3V27.79h5.3z"/><path data-name="Path 204" d="M502.01 60.91h-5.3V42.02q0-10.545-7.7-10.54a8.353 8.353 0 00-6.58 2.99 11.053 11.053 0 00-2.6 7.55v18.89h-5.3V27.79h5.3v5.5h.13a11.951 11.951 0 0110.87-6.27q5.43 0 8.31 3.51t2.88 10.14v20.24z"/></g><path data-name="Path 205" d="M216.13 249.95v-6.4a12.231 12.231 0 002.64 1.75 21.389 21.389 0 003.23 1.31 24.494 24.494 0 003.41.82 19.437 19.437 0 003.17.29q5.01 0 7.49-1.86a6.994 6.994 0 001.65-8.62 9.326 9.326 0 00-2.28-2.54 23.234 23.234 0 00-3.44-2.2c-1.33-.7-2.75-1.44-4.29-2.22q-2.43-1.23-4.53-2.49a19.572 19.572 0 01-3.65-2.78 11.607 11.607 0 01-2.44-3.44 10.7 10.7 0 01-.89-4.51 10.565 10.565 0 011.39-5.51 12.052 12.052 0 013.65-3.87 16.516 16.516 0 015.16-2.26 23.441 23.441 0 015.9-.74q6.855 0 9.99 1.65v6.11a18.09 18.09 0 00-10.54-2.85 17.219 17.219 0 00-3.56.37 10.1 10.1 0 00-3.17 1.21 6.9 6.9 0 00-2.26 2.17 5.749 5.749 0 00-.87 3.23 6.654 6.654 0 00.66 3.07 7.422 7.422 0 001.96 2.36 19.538 19.538 0 003.15 2.07q1.86 1 4.29 2.2 2.49 1.23 4.72 2.59a21.626 21.626 0 013.91 3.01 13.537 13.537 0 012.67 3.65 10.255 10.255 0 01.99 4.59 11.651 11.651 0 01-1.34 5.8 11.092 11.092 0 01-3.62 3.87 15.783 15.783 0 01-5.26 2.15 28.836 28.836 0 01-6.27.66 25.414 25.414 0 01-2.72-.18c-1.08-.12-2.18-.29-3.3-.52a29.1 29.1 0 01-3.19-.84 9.4 9.4 0 01-2.41-1.1zm39.36-39.65a3.358 3.358 0 01-2.43-.97 3.538 3.538 0 010-4.93 3.336 3.336 0 012.43-.99 3.411 3.411 0 012.47.99 3.452 3.452 0 010 4.9 3.38 3.38 0 01-2.47 1zm2.59 41.53h-5.3v-33.12h5.3zm57.76 0h-5.3v-19.02q0-5.5-1.7-7.96t-5.71-2.46a7.057 7.057 0 00-5.77 3.1 11.911 11.911 0 00-2.38 7.44v18.89h-5.3v-19.66q0-9.765-7.54-9.77a6.992 6.992 0 00-5.76 2.93 12.094 12.094 0 00-2.26 7.62v18.89h-5.3v-33.12h5.3v5.24h.13a11.256 11.256 0 0110.28-6.02 9.563 9.563 0 019.38 6.85q3.69-6.855 11-6.86 10.935 0 10.93 13.49zm15.46-4.79h-.13v20.02h-5.3v-48.35h5.3v5.82h.13a12.537 12.537 0 0111.45-6.6 12.121 12.121 0 019.99 4.45q3.59 4.45 3.59 11.92 0 8.31-4.04 13.31a13.469 13.469 0 01-11.06 5 11.085 11.085 0 01-9.93-5.57zm-.13-13.36v4.62a9.844 9.844 0 002.67 6.97 9.521 9.521 0 0014.33-.83q2.73-3.69 2.73-10.25 0-5.535-2.55-8.67a8.456 8.456 0 00-6.92-3.14 9.4 9.4 0 00-7.44 3.22 11.812 11.812 0 00-2.82 8.08zm38.93 18.15h-5.3V202.8h5.3zm37.36-15.24h-23.38c.09 3.69 1.08 6.53 2.98 8.54a10.253 10.253 0 007.83 3.01 16.239 16.239 0 0010.28-3.69v4.98q-4.365 3.165-11.55 3.17-7.02 0-11.03-4.51t-4.01-12.69q0-7.725 4.38-12.6a14.067 14.067 0 0110.88-4.87q6.5 0 10.06 4.2t3.56 11.67zm-5.43-4.49a10.834 10.834 0 00-2.21-7.15 7.563 7.563 0 00-6.06-2.55 8.6 8.6 0 00-6.37 2.68 12.162 12.162 0 00-3.23 7.02zM98.7 190.92l-.02.02h.04zm93.48.02h-93.5l-1.18 1.22-.2.22c-.9.94-1.84 1.84-2.78 2.69a59.888 59.888 0 01-25.13 14.02c-.27.08-.53.14-.8.22l-1.18.29-.27 1.18c-.1.43-.18.86-.27 1.31a49.81 49.81 0 00-.88 9.21 48.915 48.915 0 0029.21 44.77c.2.1.43.2.65.29.49.22.98.41 1.47.61l.59.22.08.02.04-.02a.341.341 0 00.14.02h93.99a3.666 3.666 0 003.67-3.67v-68.96a3.617 3.617 0 00-3.65-3.64zm-6.35 5.86l-39.13 34.11a2.129 2.129 0 01-2.8-.02l-12.76-11.31a46.482 46.482 0 00-.88-8.1q-.06-.33-.12-.69l-.27-1.18-1.18-.31c-.29-.06-.57-.14-.86-.2a58.425 58.425 0 01-18.17-8.55l-4.23-3.74h80.4zm-52.67 32.19l-3.21 2.84a49.554 49.554 0 00.86-4.92zm-35.09 34.07c-1.2-.49-2.39-1.04-3.55-1.63a45.314 45.314 0 01-24.6-40.11 43.712 43.712 0 01.82-8.49 63.514 63.514 0 0023.78-12.21c1.45-1.16 2.84-2.41 4.18-3.72a63.629 63.629 0 0023.09 14.39c1.55.57 3.12 1.06 4.74 1.49.18 1.02.35 2.06.45 3.1a46.713 46.713 0 01.29 5.04c0 .92-.02 1.84-.1 2.76a44.156 44.156 0 01-2.8 13.09 45.171 45.171 0 01-26.3 26.29zm11.41-1.51a49 49 0 0016.27-18.29l11.74-10.37 6.37 5.7a2.133 2.133 0 002.82 0l6.49-5.76 32.58 28.68zm48.12-32.58L190.2 200l.06 57.77zm-50.73 23.21a32.161 32.161 0 004.33-3.82zm14.53-33.58c-.1-.82-.22-1.63-.37-2.45-1.29-.35-2.55-.76-3.8-1.22a.02.02 0 01-.02-.02c-.33-.1-.63-.24-.96-.37-.71-.29-1.43-.59-2.14-.94-.49-.22-1-.45-1.49-.71-.35-.16-.71-.35-1.06-.55a46.09 46.09 0 01-3.31-1.94 33.4 33.4 0 01-1.96-1.31.359.359 0 01-.14-.1c-.69-.47-1.37-.98-2.04-1.49-1.33-1.02-2.61-2.1-3.86-3.25-.53-.47-1.06-.96-1.57-1.47q-2 1.935-4.16 3.72a50.115 50.115 0 01-18.31 9.7 36.36 36.36 0 00-.65 6.84 37 37 0 0018.97 32.21 35.939 35.939 0 003.65 1.74c.73-.29 1.47-.59 2.18-.92a.07.07 0 00.04-.02c.59-.27 1.18-.55 1.76-.86a17.076 17.076 0 001.55-.88 4.185 4.185 0 00.49-.29c.27-.16.53-.33.78-.49a.481.481 0 00.16-.12 15.669 15.669 0 001.33-.92 1.7 1.7 0 00.41-.31l4.33-3.82c.04 0 .04 0 .04-.02a37.109 37.109 0 009.08-16 36.106 36.106 0 001.31-9.64 40.262 40.262 0 00-.24-4.1zm-21.08 20.98l-3.33 3.33h-.02l-13.78-13.78 4.23-4.27 9.57 9.57 3.33-3.33 11.62-11.64 4.25 4.25z" transform="translate(-65.99 -190.92)" fill="url(#a)"/></g></svg>